# xmcd CD database file
#
# Track frame offsets:
#	150
#	21215
#	42141
#	61215
#	106425
#	119311
#	150079
#	165015
#
# Disc length: 2487 seconds
#
# Revision: 3
# Processed by: cddbd v1.5.2PL0 Copyright (c) Steve Scherf et al.
# Submitted via: CDex 1.70beta2
#
DISCID=4e09b508
DTITLE=MIKE OLDFIELD - LIGHT and SHADE CD 1
DYEAR=2005
DGENRE=New Age
TTITLE0=ANGELIQUE
TTITLE1=BLACKBIRD
TTITLE2=THE GATE
TTITLE3=FIRST STEPS
TTITLE4=CLOSER
TTITLE5=OUR FATHER
TTITLE6=ROCKY
TTITLE7=SUNSET
EXTD=YEAR: 2005
EXTT0=
EXTT1=
EXTT2=
EXTT3=
EXTT4=
EXTT5=
EXTT6=
EXTT7=
PLAYORDER=
